<?xml version="1.0" encoding="UTF-8"?>
<svg id="Layer_2" data-name="Layer 2" xmlns="http://www.w3.org/2000/svg" viewBox="0 0 862.57 762.06">
  <defs>
    <style>
      .cls-1 {
        fill: #c11f1f;
      }
    </style>
  </defs>
  <path class="cls-1" d="M861.05,7.8c.05,2.36.13,4.71.13,7.07v522.36c0,2.36-.1,4.71-.16,7.07-7.5.04-15,.12-22.5.12-60.87.01-121.73,0-182.6.02-1.92,0-3.85.11-5.77.17-2.93-.03-5.87-.1-8.8-.03-.38,0-.75.74-1.12,1.13-.05,1.71-.11,3.43-.16,5.14-.1,2.13-.28,4.27-.28,6.4-.01,31.74-.01,63.48.01,95.22,0,2.57.2,5.13.3,7.7.92,1.65,2.52,1.28,3.96,1.29,16.59.04,33.17.08,49.76.1,1.27,0,2.56,0,3.8-.2.53-.09.96-.72,1.44-1.1.14-1.03.4-2.06.4-3.09.04-6.51.03-13.02,0-19.52,0-1.03-.23-2.07-.35-3.1-.35-1.36-1.46-1.31-2.5-1.31-8.9-.02-17.8-.04-26.7-.01-3.17.01-6.34.16-9.51.24-.1-1.27-.3-2.54-.3-3.81-.02-18.56-.02-37.11,0-55.67,0-1.27.22-2.53.33-3.8,37.74.02,75.48.04,113.22.05l.53.06.53-.06c.07,2.35.2,4.69.2,7.04.01,58.38,0,116.76.02,175.13,0,2.34.18,4.69.27,7.03l-.46-.17c-.35.39-.7.78-1.04,1.18-1.92.07-3.85.2-5.77.2-67.77.01-135.55.01-203.32,0-1.92,0-3.85-.13-5.77-.2-.35-.39-.69-.78-1.04-1.17l-.46.17c.1-1.92.27-3.83.27-5.75.01-66.98.01-133.96,0-200.94,0-1.92-.16-3.84-.24-5.76l.11-2.42c-.45-.41-.9-1.18-1.35-1.19-5.08-.08-10.17-.07-15.25.02-.45,0-.88.8-1.32,1.23-.14.43-.06.81.24,1.14-.07,2.35-.2,4.71-.2,7.06-.01,33.03,0,66.05-.02,99.08,0,2.35-.16,4.7-.24,7.06l-1.17,1.17c-2.35.04-4.7.12-7.06.11-18.61-.04-37.22-.15-55.82-.14-14.76,0-29.52.21-44.27.21-35.94.01-71.87-.04-107.81-.06-.11-1.48-.33-2.96-.33-4.44-.02-36.09-.02-72.17,0-108.26,0-.85.09-1.7.14-2.55-.22-1.23-1.04-1.81-2.2-1.82-4.65-.05-9.31-.07-13.96-.06-.61,0-1.23.14-1.8.32-.09.03,0,.63,0,.97.05.43.1.86.15,1.29-.12,2.34-.34,4.69-.34,7.03-.02,66.86-.01,133.72-.02,200.59,0,2.36-.02,4.71-.03,7.07-2.35.08-4.7.23-7.05.23-67.45.01-134.9.01-202.35,0-2.14,0-4.27-.13-6.41-.21-.38-.36-.76-.72-1.15-1.07-.08-1.92-.24-3.83-.24-5.75,0-58.81,0-117.61,0-176.42,0-1.92.16-3.83.24-5.75.39-.41.78-.82,1.17-1.23h111.92c.39.41.78.82,1.18,1.23.08,1.27.24,2.53.24,3.8.02,17.63.02,35.26,0,52.89,0,1.27-.16,2.53-.24,3.8-.38.35-.76.69-1.15,1.04-2.12.07-4.25.19-6.37.2-8.51.02-17.03-.02-25.54.04-1.89.01-3.77.35-5.66.53-.17.03-.47.06-.47.1-.02.3.03.61.05.91-.06,8.39-.12,16.79-.17,25.18.39.46.69,1.16,1.18,1.33.77.28,1.66.27,2.51.26,17.22-.02,34.44-.05,51.67-.1.83,0,1.69-.14,2.49-.37.32-.09.52-.61.77-.94-.08-2.98,1.36-5.74,1.1-8.79-.25-2.97-.05-5.97-.05-8.96,0-27.53.02-55.06,0-82.6,0-2.12-.24-4.23-.37-6.35.08-.81.17-1.62.25-2.44.48-.71.36-1.3-.34-1.79-.11-1.18-.22-2.35-.33-3.53-.37-.39-.74-1.12-1.12-1.13-3.07-.05-6.14.04-9.21.08-1.92-.08-3.84-.22-5.76-.22-60.81-.01-121.62-.02-182.43,0-7.27,0-14.55.18-21.82.28-.08-2.57-.23-5.13-.23-7.7,0-173.94,0-347.89-.02-521.83,0-3.39.3-6.79-.77-10.16C-.03,3.8-.51,1.92,1.43,1.09c3,.04,6,.13,9,.13h840.39c3,0,6.01.04,9.01.06l.38-.1c-.05,1.71-.18,3.42-.1,5.13.02.49.63.96.97,1.43l-.03.06ZM52.97,189.35c-.83-.02-1.28.26-.93,1.18-.08,5.34-.22,10.69-.22,16.03s.15,10.69.24,16.03c-.27.33-.36.71-.28,1.13.65.48,1.25,1.29,1.95,1.39,1.69.23,3.42.15,5.13.15,66.64,0,133.27,0,199.91-.01,1.93,0,3.86-.02,5.78-.08.93-.03,1.55-.6,1.94-1.43.1-.44.01-.82-.28-1.17.09-1.92.25-3.84.26-5.76.01-55.28.01-110.57,0-165.85,0-1.92-.16-3.84-.24-5.76.2-1.57-.87-1.54-1.92-1.53l-.04-.1c-1-1.61-2.63-1.07-4.03-1.07-18.92-.03-37.85-.03-56.77-.01-1.06,0-2.12.08-3.16.27-.28.05-.45.64-.68.98-.13,1.91-.37,3.82-.37,5.73-.02,46.47,0,92.94,0,139.4-.28-.12-.56-.17-.86-.16-.57-.61-.94-.33-1.25.27-1.92.07-3.84.21-5.75.21-41.67.01-83.33,0-125,.01-4.06,0-8.12.02-12.17.03l-.04-.55c-.48-.71-.86-.52-1.18.14l-.02.54h-.02ZM396.65,475.09c.4.36.79.73,1.19,1.09.2.07.44.1.59.23,3.15,2.76,6.37,5.48,10.17,7.25,3.71,1.73,7.18,4.22,11.57,4.23.5,0,.96.86,1.52,1.03.57.17,1.24-.03,1.87-.08.9.15,1.79.29,2.69.44,2.98,1.78,5.97,1.73,8.97.04.47-.15.94-.3,1.41-.44,1.21.06,2.42.12,3.63.17,1.04.06,2.04,0,2.71-.99,1.15-.44,1.84-1.7,3.33-1.6,1,.07,2.15-.09,3.02-.54,6.07-3.15,12.01-6.39,16.75-11.62,2.99-3.31,5.44-6.86,7.62-10.67,1.03-1.8,1.58-3.88,3.04-5.45,1.44-1,.97-2.48.97-3.84h.01c.95-.73,1.05-1.58.32-2.55.2-.56.44-1.1.6-1.67,2.4-8.08.98-15.99-1.39-23.75-1.14-3.74-2.71-7.37-4.67-10.86-3.01-5.36-7.75-9.06-11.77-13.44-4.01-2.2-7.98-4.47-12.05-6.56-.88-.45-2.08-.29-3.13-.41-.49-1.36-1.53-1.28-2.64-1-.84-.09-1.68-.19-2.52-.28-.34-.91-1.07-1.13-1.94-1.18-.62-.03-1.23-.13-1.85-.2-.73-.37-1.44-1.04-2.18-1.06-2.94-.08-5.89-.03-8.82.13-.76.04-1.49.66-2.23,1.01-.61.06-1.22.15-1.83.16-.87,0-1.58.23-1.91,1.14-1.61-.42-2.56,1.33-3.98,1.29-3.51-.09-6.1,1.95-8.87,3.6-.95.36-2.37-.06-2.56,1.56l.03-.05c-.51.44-1.03.87-1.54,1.31-2.33,1.89-4.39,4.16-7.29,5.27-1.32.44-1.4,1.53-1.38,2.67-1.23,1.4-2.58,2.72-3.67,4.23-1.09,1.5-2.44,3.1-2.72,4.81-.32,2.01-1.79,3.26-2.27,5.02-.32,1.19-.31,2.47-.45,3.71-1.29.53-1.21,1.55-.94,2.64-.28.32-.41.68-.39,1.11-.75.23-1.38.53-.77,1.47-.12,5.41-.19,10.82-.37,16.23-.05,1.48,1.17,2.1,1.69,3.18-.09.93-.3,1.87-.23,2.78.03.39.65.74,1.01,1.11.03.42-.06.89.1,1.25,1.95,4.31,4.28,8.44,6.77,12.45.97,1.56,2.34,2.87,3.52,4.3.37.4.74.8,1.1,1.19l.16.16v-.02ZM697.68,400.27c-.08-.66-.32-1.12-1.11-.9-3.07-2.51-6.24-4.83-10.27-5.55-.51-1.28-1.51-1.27-2.61-1.01-.44-.09-.87-.19-1.31-.28-.85-1.65-2.58-.94-3.86-1.44-2.14-1.6-4.29-1.61-6.46-.07-1.05.13-2.1.3-3.15.37-.88.07-1.66.21-2.05,1.13-1.9-.06-3.76.02-5.12,1.65-1.03-.18-2.19-.76-2.56.91l-.03.04c-.97.24-2.31-.3-2.67,1.25-.39.42-.79.83-1.18,1.25-1.85.07-3.21.88-3.95,2.62-1.59.98-2.92,2.21-3.75,3.92-.74.64-1.72,1.15-2.17,1.95-1.04,1.85-1.82,3.84-2.71,5.77-.09.83-.18,1.65-.28,2.48-.72.17-1.28.45-1.02,1.36-.08,5.11-.17,10.23-.2,15.34,0,.82.12,1.72.47,2.45,1.14,2.43,2.24,4.9,3.66,7.17,1.45,2.31,3.06,4.58,4.94,6.54,2.15,2.24,10.1,6.94,13.23,8.13.94.36,2.08.21,3.12.3,1.4.52,2.8,1.04,4.2,1.56,2.97,1.38,4.57,1.39,7.63.04,1.21-.16,2.41-.32,3.62-.48,1.19.15,2.29.09,2.81-1.27l-.04.04c1.47,0,3.16.55,3.83-1.5.68-.4,1.37-.79,2.04-1.21,2.6-1.66,5.38-3.12,7.74-5.07,2.06-1.7,3.13-4.3,4.5-6.6.96-1.6,2.58-2.82,2.78-4.85.33-.47.67-.95,1-1.42l-.08.06c.99-.67,1.13-1.5.42-2.48,1.72-5.12,1.92-10.28.51-15.5.35-.79-.26-.99-.77-1.26-.15-1.42-.17-2.75-.85-4.18-1.54-3.24-3.62-6.02-5.92-8.69.23-.82-.24-1.08-.93-1.15l-.14-.14-1.14-1.13-.17-.16h0ZM215.12,442.76l.05-.03c.4-.45.81-.9,1.21-1.35.2-2.5,1.64-4.42,3-6.38,1.3-1.07.87-2.54.89-3.9.66-1.03,1.4-2.06.29-3.25,1.38-4.74.02-9.12-1.42-13.62s-3.61-8.46-6.69-11.99c-4.76-5.48-11.06-8.07-17.89-9.73-.83-1.73-2.6-.9-3.88-1.43-2.59-1.67-5.17-1.65-7.74.03-.62.12-1.24.29-1.86.34-.87.07-1.66.21-2.06,1.11-1.61.05-3.28-.26-4.57,1.23-.3.35-1.18.2-1.79.28-.89-.25-1.2.22-1.24,1.01l-.11.16c-.91.23-2.21-.41-2.55,1.12h0c-.78.1-1.22.5-1.23,1.31l-.04.05c-1.76.08-3.16.7-3.75,2.53-1.38.53-2.32,1.46-2.63,2.94-2.41.71-2.51,2.77-2.76,4.74-1.31.37-1.1,1.48-1.19,2.45-1.41.42-1.06,1.73-1.37,2.7l.07-.06c-1.63.46-1.11,1.6-.83,2.66-.54,1.54-1.44,3.07-1.54,4.64-.15,2.28.27,4.6.44,6.9-.39.72-.14,1.25.51,1.65.41,1.83-.35,3.89,1.1,5.51,2.28,8.13,8.75,14.38,15.33,18.42,2.32,1.42,4.81,3.44,8.02,2.81l4.13,1.57c2.97,1.55,5.95,1.55,8.92,0,1.07-.16,2.14-.32,3.22-.48.9,0,1.57-.35,1.87-1.26.5-1.46,1.61-1.11,2.68-.91.7.89,1.04.62,1.16-.36h0c1.13.11,2.2.08,2.63-1.26l-.02.02c1.09.07,2.11,0,2.59-1.23l.06-.04c.42-.39.84-.79,1.26-1.18l.04-.07c1.13,0,2.17-.12,2.42-1.52,1.4-1.62,2.8-3.24,4.2-4.86.36-.43.72-.86,1.07-1.29v.02ZM809.8,189.29l.08-.37c-.83-1.2-1.7-1.25-2.63-.11-2.13.11-4.25.31-6.38.32-44.02.03-88.03.04-132.05.04-1.06,0-2.13-.13-3.19-.21-.36-.64-.77-.8-1.27-.14-.34.1-.69.15-1.05.17-.03-2.57-.1-5.14-.1-7.71,0-43.07,0-86.13-.02-129.2,0-2.35-.17-4.7-.26-7.05,0-.42.02-.84.02-1.27-.22-1-.95-1.28-1.86-1.28h-60.75c-.89,0-1.65.31-2.2,1.04-.38.03-.64.23-.76.59-.75-.14-1.18.03-.89.9-.15,2.12-.42,4.23-.42,6.35-.02,54.54-.02,109.07,0,163.61,0,2.13.16,4.26.25,6.39,0,.42-.02.84-.03,1.26-.25.39-.29.8-.1,1.22.68.44,1.34,1.19,2.06,1.26,1.91.2,3.85.12,5.78.12h101.03c32.82,0,65.64.01,98.46,0,1.93,0,3.86-.04,5.78-.2.94-.08,1.38-.88,1.56-1.77-.06-2.13-.15-4.25-.17-6.38-.06-8.73-.1-17.46-.14-26.19.46-.86.07-1.26-.77-1.42l.02.03ZM503.56,543.44h-20.78c-.93.03-1.08.48-.67,1.23-.04,2.14-.12,4.27-.13,6.41-.01,15.4,0,30.79-.02,46.19,0,2.12-.22,4.25-.33,6.37-.44.34-.88.68-1.32,1.02-1.06.07-2.12.19-3.19.19-23.46.03-46.92.08-70.37.06-8.1,0-16.2-.18-24.29-.27-.31-.59-.7-.77-1.22-.22-.31.03-.61.09-.91.17-.01-17.93,0-35.87-.05-53.8,0-2.12-.21-4.24-.33-6.36-.23-.54-.32-1.2-1.15-1.2-6.5.01-13,0-19.5.01-.21,0-.51,0-.6.13-.23.32-.36.7-.53,1.06v1.29c-.08,1.48-.24,2.97-.24,4.45-.01,25.78-.01,51.56,0,77.33,0,1.48.16,2.97.24,4.45,0,.42-.02.84-.03,1.25-.23.4-.26.81-.08,1.23.69.44,1.33,1.17,2.06,1.26,1.69.21,3.42.12,5.13.12h130.95c1.71,0,3.44.08,5.13-.1.76-.08,1.45-.73,2.17-1.13l-.06-.38c.82-.06,1.12-.43.71-1.21.07-1.92.2-3.83.2-5.75.01-25.83.01-51.65,0-77.48,0-1.71-.08-3.41-.13-5.12.41-.76.25-1.2-.67-1.23v.03ZM419.81,43.67c-.02.89-.03,1.78-.05,2.67-.11,2.34-.33,4.69-.33,7.03-.01,89.99-.01,179.99,0,269.98,0,1.93.04,3.86-.05,5.78-.03.59-.4,1.16-.62,1.75-2.14-.03-4.28-.09-6.42-.09H154.09c-2.35,0-4.71.08-7.06.13-.43-.03-.85-.1-1.28-.1-29.94-.02-59.88-.04-89.82-.04-.61,0-1.24.13-1.83.31-.09.03,0,.63,0,.97.04.44.08.87.13,1.31-.12.84-.32,1.69-.33,2.53-.28,17.77.6,35.55-.7,53.3v114.55c0,1.92.15,3.85.22,5.77-.29.85.3,1.22.86,1.62,1.31,1.56,3.12,1.1,4.77,1.1,16.84.02,33.67.02,50.51,0,1.27,0,2.56-.04,3.79-.29.51-.1.89-.82,1.33-1.25.05-.35,0-.7-.1-1.03v-1.3c.06-2.36.18-4.71.18-7.07,0-36.9,0-73.79.02-110.69,0-2.35.14-4.71.22-7.06.37-.35.74-.7,1.11-1.05,2.14-.08,4.28-.23,6.42-.23,12.44-.02,24.87,0,37.31-.01,35.59-.01,71.18-.03,106.77-.04.22.22.48.3.78.24,0,2.14.03,4.29.03,6.43,0,36.21,0,72.42.02,108.64,0,2.33.31,4.67.47,7,.97,1.59,2.57,1.24,4.01,1.25,14.48.02,28.97.02,43.45,0,.85,0,1.73.03,2.52-.22.51-.16.87-.8,1.3-1.23.05-2.35.15-4.71.15-7.06,0-35.55,0-71.1.02-106.65,0-2.35.15-4.7.22-7.05.39-.36.78-.72,1.17-1.09,1.92-.07,3.85-.19,5.77-.2,37.25-.01,74.51,0,111.76,0h96.35c2.78,0,5.56.06,8.35.09.09,2.35.25,4.7.25,7.05.02,35.59,0,71.19.02,106.78,0,2.35.19,4.7.29,7.05-.04.43-.07.86-.11,1.3.96,1.63,2.57,1.22,4,1.22,14.47.03,28.94.02,43.41,0,.85,0,1.73.03,2.53-.19.53-.15.95-.73,1.42-1.12-.01-.41-.03-.81-.04-1.22.1-2.35.29-4.7.29-7.04.02-35.59,0-71.18.02-106.78,0-2.35.17-4.7.26-7.05,2.57-.04,5.14-.1,7.7-.1h136.8c2.57,0,5.14.08,7.7.12.09,2.35.26,4.7.26,7.05.02,37.31,0,74.62.03,111.92,0,2.35.2,4.69.31,7.04-.02.45-.04.89-.06,1.34,0,.43-.02.85-.02,1.28,1.24,1.66,3.05,1.22,4.7,1.23,16.39.02,32.79.01,49.18.01,1.49,0,3,.09,4.46-.1.76-.1,1.45-.73,2.17-1.12l-.03-.43c.78,0,1.02-.51.62-1.32.03-1.5.08-3,.08-4.49,0-25.7.08-51.4-.02-77.1-.11-29.96-.37-59.93-.58-89.89,0-1.06-.18-2.12-.27-3.18v-1.25c.28-.37.32-.76.14-1.19-.46-.41-.88-1.11-1.37-1.17-1.68-.21-3.39-.24-5.09-.24-26.85,0-53.71,0-80.56.02-1.91,0-3.83.13-5.74.21-2.78-.07-5.56-.21-8.34-.21-84.99-.01-169.98,0-254.97-.01-3,0-5.99-.07-8.99-.11l-.61-1.17c.1-2.13.27-4.26.27-6.39.01-90.12.01-180.24,0-270.36,0-2.13-.16-4.27-.24-6.4-.03-.83-.05-1.67-.08-2.5-.43-.39-.85-1.1-1.28-1.11-6.74-.09-13.47-.1-20.21-.05-.48,0-.96.64-1.45.98h-.02ZM583.07,544.84c-.84.08-.93.5-.51,1.14-.06,2.99-.18,5.98-.18,8.98,0,62.49.01,124.98.03,187.46.4.45.76,1.25,1.2,1.3,1.9.2,3.83.23,5.75.23h161.69c1.71,0,3.43.09,5.13-.1.74-.08,1.41-.75,2.11-1.16.14-1.9.41-3.81.41-5.71.02-48.11.02-96.22,0-144.33,0-1.91-.21-3.82-.33-5.73-.19-.36-.33-1-.56-1.03-1.26-.17-2.55-.24-3.82-.24-25.42-.01-50.83-.01-76.25,0-1.49,0-2.97.18-4.46.27-.93.03-1.08.48-.68,1.23v32.99c.36.46.69,1.27,1.09,1.32,1.89.2,3.81.23,5.72.24,12.34.06,24.68.1,37.02.14.1,3.83.3,7.65.3,11.48-.03,18.33-.11,36.67-.17,55-2.55.09-5.1.24-7.66.25-28.55.05-57.11.07-85.66.1-4.5-.1-9-.2-13.51-.3-.11-2.34-.31-4.69-.31-7.03-.06-43.28-.1-86.55-.16-129.83,0-1.92-.19-3.84-.28-5.75-.18-1.02-.89-1.29-1.8-1.29-6.78,0-13.56-.04-20.34,0-1.25,0-2.51.25-3.76.38h-.01ZM253.73,544.75c-.85.17-1.07.62-.61,1.37v31.64c-.04.53-.09,1.07-.13,1.6-.04,2.35-.11,4.71-.11,7.06,0,31.7,0,63.41-.02,95.11,0,2.34-.24,4.68-.37,7.02-4.32.05-8.64.1-12.96.15-28.51-.04-57.02-.07-85.53-.12-2.35,0-4.7-.14-7.06-.22-.37-.35-.74-.7-1.11-1.05-.08-1.27-.24-2.54-.24-3.8-.03-18.92-.04-37.83-.03-56.75,0-1.27.16-2.54.24-3.8.38-.34.77-.69,1.15-1.03,2.14-.07,4.27-.2,6.41-.2,9.85-.02,19.69,0,29.54-.02,1.71,0,3.43,0,5.12-.18.49-.05.91-.73,1.36-1.12.14-.82.4-1.65.41-2.47.03-9.72.02-19.44,0-29.15,0-.62-.21-1.24-.31-1.86-.19-.36-.33-1.01-.56-1.04-1.26-.17-2.55-.24-3.82-.24-25.42-.01-50.83-.01-76.25,0-1.49,0-2.97.18-4.46.27-.93.03-1.08.48-.67,1.23-.04.85-.13,1.71-.13,2.56,0,50.9.02,101.8.03,152.7.4.45.76,1.25,1.2,1.3,1.9.2,3.83.23,5.75.23h161.69c1.71,0,3.43.09,5.13-.1.74-.08,1.41-.75,2.11-1.16.14-2.12.41-4.24.41-6.36.02-61.41.02-122.82,0-184.23,0-2.13-.21-4.26-.31-6.38-.41-.39-.82-1.13-1.23-1.13-8.2,0-16.41.09-24.61.15l-.03.02ZM559.99,43.78c-.22-.34-.38-.91-.67-.99-.81-.22-1.67-.31-2.52-.31-23.24-.01-46.48-.02-69.72.01-1.48,0-2.97.21-4.44.44-.27.04-.45.63-.67.96-.11,2.13-.32,4.26-.32,6.39-.02,77.61-.02,155.21,0,232.82,0,2.14.17,4.27.26,6.41-.27.35-.35.74-.23,1.17.66.47,1.27,1.26,1.98,1.35,1.69.22,3.42.14,5.13.14h312.46c1.71,0,3.44.09,5.13-.12.73-.09,1.38-.82,2.06-1.26.19-.43.15-.84-.11-1.23.03-9.81.07-19.62.1-29.42-.34-1.27-1.36-1.49-2.45-1.48-14.62.03-29.24.08-43.86.12-2.57-.03-5.14-.08-7.71-.08-61.87,0-123.75,0-185.62-.01-2.78,0-5.56-.1-8.34-.15-.06-2.35-.17-4.71-.17-7.06,0-66.45,0-132.91-.02-199.36,0-2.35-.17-4.7-.27-7.05,0-.42-.02-.84-.03-1.27l.03-.02ZM708.32,43.78c.01.43.02.87.03,1.3-.06,1.49-.18,2.99-.18,4.48-.01,29.98-.01,59.95,0,89.93,0,1.5.09,2.99.14,4.49.43.43.79,1.11,1.29,1.23,1.02.24,2.11.23,3.17.23h92.27c1.06,0,2.15,0,3.16-.28.44-.12.69-.91,1.02-1.4,0-12.85-.01-25.71-.03-38.56-.02-20.35-.05-40.7-.07-61.05.1-.19.34-.48.29-.54-.24-.29-.56-.53-.84-.78-1.49-.12-2.98-.34-4.46-.34-30.23-.02-60.45-.02-90.68,0-1.49,0-2.99.12-4.47.31-.26.03-.44.64-.66.99h.02ZM99.46,258.89c-5.71-.09-11.42-.23-17.13-.26-8.26-.04-16.51-.02-24.77,0-1.23,0-2.58-.22-3.44,1.05-.08,8.72-.18,17.43-.23,26.15,0,1.26.21,2.53.33,3.79-.02.43-.03.85-.05,1.28-.09.2-.24.39-.25.59,0,.15.17.44.28.45,1.9.1,3.8.24,5.7.24,104.17.01,208.35,0,312.52,0,1.71,0,3.43.01,5.14-.02.64-.01,1.29-.05,1.91-.2.92-.23,1.34-.95,1.51-1.84-.05-2.35-.13-4.71-.13-7.06,0-77.36,0-154.73-.02-232.09,0-2.34-.23-4.68-.36-7.02-.41-.41-.79-1.14-1.24-1.18-2.11-.2-4.25-.27-6.37-.27-21.49-.02-42.99-.01-64.48,0-1.49,0-2.98-.02-4.45.16-.48.06-.89.72-1.33,1.1-.16,2.33-.46,4.66-.46,7-.02,66.87-.02,133.73-.02,200.6,0,2.36-.07,4.71-.11,7.07-2.57.09-5.13.27-7.7.27-62.38.02-124.77,0-187.15.02-2.57,0-5.14.13-7.71.19v-.02ZM418.47,568.94c.26.95.96,1.28,1.86,1.28,7.35,0,14.69,0,22.04-.02.41,0,.89-.07,1.2-.3.28-.22.37-.69.55-1.05,0-7.69-.02-15.37-.02-23.06-.38-.41-.75-1.17-1.13-1.17-7.76-.07-15.52-.06-23.27-.06-.21,0-.5.01-.6.14-.25.31-.42.68-.62,1.03v23.21h-.01ZM153.99,43.92c-.36-.44-.67-1.22-1.08-1.27-1.48-.19-2.99-.17-4.48-.17-29.79,0-59.57-.01-89.36,0-1.7,0-3.4.17-5.09.36-.21.02-.34.68-.51,1.04-.09,2.13-.26,4.26-.26,6.39-.02,22.88-.02,45.76,0,68.63,0,8.34.06,16.68.1,25.01.4.44.75,1.19,1.22,1.28,1.24.23,2.54.24,3.81.24,30.31,0,60.63,0,90.94,0,1.27,0,2.57,0,3.81-.25.45-.09.78-.86,1.16-1.32.02-32.26.04-64.51.04-96.77,0-1.06-.19-2.12-.28-3.17h-.02Z"/>
  <path class="cls-1" d="M859.81,1.34c-3-.02-6.01-.06-9.01-.06H10.41c-3,0-6-.08-9-.13C1.87.79,2.3.15,2.79.11,4.49-.04,6.21,0,7.93,0h845.7c1.92,0,3.85.11,5.76.26.17.01.28.7.42,1.07h0Z"/>
  <path class="cls-1" d="M89.01,760.46c2.14.07,4.27.21,6.41.21,67.45.01,134.9.01,202.35,0,2.35,0,4.7-.15,7.05-.23-.4.45-.77,1.26-1.2,1.3-2.13.19-4.27.22-6.41.23h-137.72c-22.52,0-45.05,0-67.57-.01-1.46,0-2.92-.21-4.38-.32.04-.34.09-.69.13-1.03.45-.04.89-.09,1.34-.13v-.02Z"/>
  <path class="cls-1" d="M558.85,760.46c1.92.07,3.85.2,5.77.2,67.77.01,135.55.01,203.32,0,1.92,0,3.85-.13,5.77-.2l.6.17.62-.05c-.39.49-.78.98-1.17,1.48-1.92-.03-3.85-.1-5.77-.1h-203.42c-1.92,0-3.85.07-5.77.1-.39-.49-.78-.98-1.17-1.47l.62.04.59-.17h0Z"/>
  <path class="cls-1" d="M539.47,661.48c-.68.44-1.32,1.16-2.05,1.27-1.47.22-2.98.12-4.48.12h-206.01c-1.26,0-2.51-.14-3.76-.29-.07,0-.06-.66-.08-1.02,2.36.01,4.71.03,7.07.03h90.56c14.99,0,29.97.02,44.96,0,15.18-.02,30.35.04,45.53,0,9.42-.02,18.84-.07,28.26-.11h0Z"/>
  <path class="cls-1" d="M539.47,661.48c-9.42.04-18.84.09-28.26.11-15.18.04-30.35-.03-45.53,0-14.99.02-29.97,0-44.96,0h-90.56c-2.36,0-4.71-.02-7.07-.03.05-.42.09-.85.14-1.27,35.94.02,71.87.07,107.81.06,14.76,0,29.52-.21,44.27-.21,18.61,0,37.22.1,55.82.14,2.35,0,4.7-.07,7.06-.11.39.06.78.09,1.18.1.24.39.27.79.1,1.22h0Z"/>
  <path class="cls-1" d="M857.43,546c-6-.09-12.01-.26-18.01-.26-63.06-.01-126.12,0-189.19,0l.12-.22c-.06-.3-.12-.61-.2-.91,1.92-.06,3.85-.17,5.77-.17,60.87-.01,121.73,0,182.6-.02,7.5,0,15-.08,22.5-.12-.1,1.04-.83,1.33-1.71,1.44-.63.08-1.25.17-1.88.25h0Z"/>
  <path class="cls-1" d="M211.24,545.6c-2.79.04-5.57.12-8.36.12-58.99,0-117.98,0-176.97.01-8.15,0-16.3.13-24.45.21-.04-.4-.08-.81-.11-1.21,7.27-.1,14.55-.28,21.82-.28,60.81-.02,121.62-.01,182.43,0,1.92,0,3.84.15,5.76.22-.03.31-.07.62-.12.93h0Z"/>
  <path class="cls-1" d="M660.33,568.89c0-.34-.06-.96,0-.97.82-.15,1.65-.3,2.48-.3,35.67-.01,71.34-.01,107.01,0,1.27,0,2.57.02,3.81.26.51.1.9.79,1.34,1.22-.4-.12-.8-.1-1.18.07-2.34-.09-4.69-.25-7.03-.25-35.47-.02-70.95-.02-106.42-.02h-.01Z"/>
  <path class="cls-1" d="M87.76,568.93c.48-.39.92-1.06,1.43-1.11,1.69-.19,3.41-.2,5.11-.2h101.41c1.7,0,3.42.03,5.11.23.5.06.92.76,1.38,1.17-1.07-.04-2.14-.11-3.21-.11-37.08,0-74.16.01-111.23.02h0Z"/>
  <path class="cls-1" d="M87.76,568.93c37.08,0,74.16-.02,111.23-.02,1.07,0,2.14.07,3.21.11.2.41.18.8-.07,1.17-.39,0-.78.01-1.17.05h-111.92c-.39-.04-.78-.06-1.17-.05-.04-.42-.07-.83-.11-1.25h0Z"/>
  <path class="cls-1" d="M660.33,568.89c35.47,0,70.95,0,106.42.02,2.34,0,4.69.16,7.03.25-.01.36-.04.72-.1,1.08-37.74-.02-75.48-.04-113.22-.05l-.13-1.3h0Z"/>
  <path class="cls-1" d="M221.44,660.16c-.25.32-.45.84-.77.94-.8.23-1.66.36-2.49.37-17.22.05-34.44.08-51.67.1-.84,0-1.74.01-2.51-.26-.49-.18-.79-.87-1.18-1.33,1.69.1,3.39.29,5.08.29,17.84-.01,35.69-.06,53.53-.1h0Z"/>
  <path class="cls-1" d="M699.07,660.27c-.48.38-.91,1.01-1.44,1.1-1.25.21-2.53.21-3.8.2-16.59-.02-33.17-.05-49.76-.1-1.44,0-3.04.37-3.96-1.29,19.65.03,39.31.05,58.96.08h0Z"/>
  <path class="cls-1" d="M660.42,633.47c3.17-.08,6.34-.23,9.51-.24,8.9-.03,17.8,0,26.7.01,1.04,0,2.15-.05,2.5,1.31-11.53-.02-23.05-.02-34.58-.07-1.43,0-3.03.46-4.13-1.01Z"/>
  <path class="cls-1" d="M163.42,633.77c1.89-.19,3.77-.52,5.66-.53,8.51-.06,17.03-.01,25.54-.04,2.12,0,4.25-.13,6.37-.2.37.16.76.22,1.16.19-.45.39-.88,1.06-1.37,1.12-1.69.18-3.39.18-5.09.18-8.52.01-17.04-.01-25.56.02-2.12,0-4.25.19-6.37.29-.06-.36-.17-.71-.34-1.04h0Z"/>
  <path class="cls-1" d="M305.06,544.45c0-.34-.09-.94,0-.97.58-.18,1.2-.32,1.8-.32,4.65,0,9.31,0,13.96.06,1.16.01,1.98.6,2.2,1.82-.36-.03-.71-.05-1.07-.08-1.23-.17-2.45-.48-3.68-.49-4.4-.06-8.81-.02-13.21-.02Z"/>
  <path class="cls-1" d="M557.5,544.59l-.11,2.42c-1.62-1.05-3.4-1.35-5.32-1.31-3.72.08-7.44.04-11.17.05-.06-.35-.09-.7-.09-1.06,5.56-.04,11.13-.07,16.69-.11h0Z"/>
  <path class="cls-1" d="M305.06,544.45c4.4,0,8.81-.04,13.21.02,1.23.02,2.46.32,3.68.49-1.19.26-2.38.72-3.58.74-4.39.09-8.77.04-13.16.04-.05-.43-.1-.86-.15-1.29Z"/>
  <path class="cls-1" d="M861.05,7.8c-.34-.48-.94-.94-.97-1.43-.08-1.7.05-3.42.1-5.13,1.35.18,2.31.79,2.34,2.29.03,1.59.4,3.33-1.48,4.27h0Z"/>
  <path class="cls-1" d="M650.15,544.61c.07.3.14.6.2.91-3.01.15-6.02.29-9.03.44-.35-.11-.71-.19-1.08-.24.37-.4.74-1.13,1.12-1.13,2.93-.07,5.86,0,8.8.03h0Z"/>
  <path class="cls-1" d="M640.23,545.72c.37.05.73.13,1.08.24-.33,1.66.54,3.62-1.24,4.9.05-1.71.11-3.43.16-5.14Z"/>
  <path class="cls-1" d="M540.81,544.7c0,.35.03.71.09,1.06l-.54.09-.54-.05c-.3-.33-.38-.71-.24-1.14l.62-.09.61.14h0Z"/>
  <path class="cls-1" d="M773.68,570.25c.05-.36.09-.72.1-1.08.39-.16.78-.19,1.18-.07.15.43.08.81-.22,1.16l-.53.06-.53-.06h0Z"/>
  <path class="cls-1" d="M87.87,570.19c.39,0,.78.02,1.17.05-.39.41-.78.82-1.17,1.23v-1.28h0Z"/>
  <path class="cls-1" d="M200.96,570.24c.39-.04.78-.05,1.17-.05v1.28c-.39-.41-.78-.82-1.18-1.23h0Z"/>
  <path class="cls-1" d="M202.15,633.2c-.4.03-.79-.03-1.16-.19.38-.35.76-.69,1.15-1.04,0,.41,0,.82.01,1.23Z"/>
  <path class="cls-1" d="M163.42,633.77c.17.33.29.67.34,1.04l-.39.19-.38-.21c-.03-.3-.07-.61-.05-.91,0-.04.31-.07.47-.1h.01Z"/>
  <path class="cls-1" d="M539.37,660.26c-.4,0-.79-.04-1.18-.1l1.17-1.17v1.27h.01Z"/>
  <path class="cls-1" d="M89.01,760.46c-.45.04-.89.09-1.34.13-.16-.44-.1-.84.19-1.2.38.36.76.72,1.15,1.07Z"/>
  <path class="cls-1" d="M418.54,332.11c-.72.4-1.42,1.08-2.17,1.14-2.13.17-4.28.1-6.43.1-118.57,0-237.15.01-355.72.02l-.13-1.31c29.01.01,58.03.03,87.04.03,1.91,0,3.83-.15,5.74-.22,2.35.07,4.7.2,7.05.2,85.85.01,171.7,0,257.55.01,2.35,0,4.71.03,7.06.04h.01Z"/>
  <path class="cls-1" d="M807.25,333.46c-1.71-.03-3.43-.09-5.14-.09h-357.85c-.01-.39-.02-.77-.04-1.16,2.35-.05,4.71-.13,7.06-.13,85.85,0,171.7,0,257.55-.01,2.35,0,4.7-.1,7.05-.15,2.35.06,4.71.18,7.06.18,25.94,0,51.88-.01,77.82,0,2.57,0,5.14.08,7.71.12.19.42.14.82-.14,1.19-.36.01-.73.04-1.09.08v-.03Z"/>
  <path class="cls-1" d="M379.98,290.25c.34-.07.67-.12,1.02-.14-.17.89-.59,1.61-1.51,1.84-.62.15-1.27.19-1.91.2-1.71.03-3.43.02-5.14.02H59.92c-1.9,0-3.8-.14-5.7-.24-.11,0-.28-.29-.28-.45,0-.2.16-.39.25-.59h317.58c1.93,0,3.86.05,5.78-.04.82-.04,1.63-.39,2.44-.59h0Z"/>
  <path class="cls-1" d="M481.92,289.51c2.57.03,5.14.08,7.71.08h311.65c2.36,0,4.71-.03,7.07-.05.26.39.3.8.11,1.23-1.93.03-3.86.09-5.79.09h-314.56c-2.14,0-4.28-.12-6.42-.19-.12-.43-.04-.82.23-1.17h0Z"/>
  <path class="cls-1" d="M481.69,290.68c2.14.07,4.28.19,6.42.19h314.56c1.93,0,3.86-.06,5.79-.09-.68.44-1.33,1.17-2.06,1.26-1.69.21-3.42.12-5.13.12h-312.46c-1.71,0-3.44.08-5.13-.14-.71-.09-1.32-.88-1.98-1.35h-.01Z"/>
  <path class="cls-1" d="M379.98,290.25c-.81.21-1.62.55-2.44.59-1.92.09-3.86.04-5.78.04H54.18c.02-.43.03-.85.05-1.28,106.49,0,212.97-.01,319.46.01,2.1,0,4.3-.53,6.3.63h-.01Z"/>
  <path class="cls-1" d="M715.88,331.9c-2.35.05-4.7.15-7.05.15-85.85,0-171.7,0-257.55.01-2.35,0-4.71.09-7.06.13-.27-.51-.54-1.02-.81-1.54,3,.04,5.99.11,8.99.11,84.99,0,169.98,0,254.97.01,2.78,0,5.56.14,8.34.21.07.3.12.6.18.9v.02Z"/>
  <path class="cls-1" d="M418.54,332.11c-2.35-.01-4.71-.04-7.06-.04-85.85,0-171.7,0-257.55-.01-2.35,0-4.7-.13-7.05-.2.04-.32.08-.63.14-.95,2.35-.04,4.71-.12,7.06-.13h258.25c2.14,0,4.28.06,6.42.09-.07.41-.14.83-.21,1.24h0Z"/>
  <path class="cls-1" d="M543.28,381.23c.06.43-.05.8-.32,1.14-2.78-.03-5.56-.09-8.35-.09h-208.11c-1.92,0-3.85.13-5.77.19-.4-.11-.8-.19-1.21-.23-.25-.4-.26-.81-.04-1.22,38.8-.01,77.6-.03,116.4-.04,33.23,0,66.46,0,99.68.01,2.57,0,5.14.16,7.7.24h.02Z"/>
  <path class="cls-1" d="M266.48,223.73c-.39.82-1.01,1.4-1.94,1.43-1.93.06-3.85.08-5.78.08-66.64,0-133.27.01-199.91.01-1.71,0-3.44.08-5.13-.15-.7-.09-1.3-.9-1.95-1.39,3.37.02,6.75.04,10.12.07,1.71.06,3.42.17,5.14.17h193.03c2.14,0,4.28-.15,6.42-.23h0Z"/>
  <path class="cls-1" d="M809.86,223.45c.33-.08.67-.14,1.01-.18-.19.89-.63,1.7-1.56,1.77-1.92.16-3.85.2-5.78.2h-199.49c-1.93,0-3.87.08-5.78-.12-.72-.07-1.37-.82-2.06-1.26,2.78.04,5.56.11,8.34.11h188.1c4.49,0,8.99.1,13.48.05,1.25-.01,2.49-.37,3.73-.57h.01Z"/>
  <path class="cls-1" d="M809.86,223.45c-1.24.2-2.49.56-3.73.57-4.49.04-8.99-.05-13.48-.05h-188.1c-2.78,0-5.56-.07-8.34-.11-.19-.42-.15-.83.1-1.22.39-.04.77-.1,1.15-.18,2.56.08,5.13.22,7.69.22,62.29.01,124.58,0,186.86.01,4.71,0,9.42.03,14.12.14,1.25.03,2.49.41,3.73.62h0Z"/>
  <path class="cls-1" d="M266.48,223.73c-2.14.08-4.28.23-6.42.23-64.34.01-128.69.01-193.03,0-1.71,0-3.42-.11-5.14-.17.05-.3.09-.61.11-.92,2.78-.06,5.56-.18,8.34-.18,62.51-.01,125.01,0,187.52-.01,2.78,0,5.56-.08,8.34-.12.29.34.38.73.28,1.17Z"/>
  <path class="cls-1" d="M302.02,258.4c-.36.47-.68,1.31-1.08,1.35-2.13.19-4.27.22-6.41.22H103.64c-1.5,0-2.99-.09-4.49-.13.1-.32.2-.63.3-.95,2.57-.07,5.14-.19,7.71-.19,62.38-.01,124.77,0,187.15-.02,2.57,0,5.13-.18,7.7-.27h0Z"/>
  <path class="cls-1" d="M762.49,259.68c-2.35.1-4.69.28-7.04.28-62.66.02-125.33.01-187.99,0-1.92,0-3.85-.02-5.75-.21-.45-.04-.83-.8-1.24-1.23,2.78.05,5.56.15,8.34.15,61.87,0,123.75,0,185.62.01,2.57,0,5.14.05,7.71.08.14.3.26.6.35.92h0Z"/>
  <path class="cls-1" d="M582.4,742.41c2.56.08,5.13.23,7.69.24,56.06.02,112.12.03,168.18.04-.7.4-1.37,1.08-2.11,1.16-1.69.19-3.42.1-5.13.1h-161.69c-1.92,0-3.85-.03-5.75-.23-.44-.05-.8-.84-1.2-1.3h.01Z"/>
  <path class="cls-1" d="M103.59,742.41c2.56.08,5.13.23,7.69.24,56.06.02,112.12.03,168.18.04-.7.4-1.37,1.08-2.11,1.16-1.69.19-3.42.1-5.13.1H110.53c-1.92,0-3.85-.03-5.75-.23-.44-.05-.8-.85-1.2-1.3h0Z"/>
  <path class="cls-1" d="M595.29,382.38c.16-.36.3-1.02.49-1.04,1.9-.18,3.82-.34,5.73-.34,16.89-.02,33.77-.01,50.66-.01h88.49c1.92,0,3.85,0,5.75.18.4.04.73.8,1.09,1.24-2.57-.04-5.14-.12-7.7-.12h-136.8c-2.57,0-5.14.07-7.7.1h0Z"/>
  <path class="cls-1" d="M114.95,382.28c.21-.35.37-.96.62-1,1.26-.18,2.55-.29,3.83-.29,47.57-.01,95.13-.01,142.7,0,1.28,0,2.57.08,3.83.25.26.04.45.64.67.98-35.59.02-71.18.03-106.77.04-12.44,0-24.87-.01-37.31.01-2.14,0-4.28.15-6.42.23-.38-.11-.76-.18-1.15-.24v.02Z"/>
  <path class="cls-1" d="M809.61,190.51c-4.92,0-9.84-.02-14.76-.02h-123.86c-1.92,0-3.85-.02-5.77-.07-.94-.02-1.57-.54-1.9-1.41.36-.02.71-.08,1.05-.17.42.05.85.09,1.27.14,1.06.07,2.13.21,3.19.21,44.02,0,88.03-.01,132.05-.04,2.13,0,4.25-.21,6.38-.32.88.04,1.75.07,2.63.11l-.08.37c0,.42-.06.82-.19,1.22v-.02Z"/>
  <path class="cls-1" d="M199.25,188.86c-.37.47-.67,1.27-1.12,1.36-1.24.25-2.54.26-3.81.26-44.7,0-89.4-.01-134.1-.03-1.49,0-2.99-.01-4.47-.2-.55-.07-1.03-.67-1.54-1.02,4.06-.01,8.12-.03,12.17-.03,41.67,0,83.33,0,125-.01,1.92,0,3.84-.14,5.75-.21.42-.09.83-.18,1.25-.27.3,0,.59.05.86.16h.01Z"/>
  <path class="cls-1" d="M503.5,634.59c-.72.39-1.42,1.05-2.17,1.13-1.69.18-3.42.1-5.13.1h-130.95c-1.71,0-3.44.09-5.13-.12-.73-.09-1.38-.82-2.06-1.26,16.44.03,32.89.08,49.33.09,32.04.03,64.07.04,96.11.06Z"/>
  <path class="cls-1" d="M503.5,634.6c-32.04-.02-64.07-.03-96.11-.06-16.44-.01-32.89-.06-49.33-.09-.18-.42-.15-.83.08-1.23.4.02.79,0,1.18-.07,1.93.03,3.85.1,5.78.1h131.73c2.14,0,4.28-.11,6.42-.17.06.38.12.76.19,1.13l.06.38h0Z"/>
  <path class="cls-1" d="M708.32,143.98c1.93.05,3.86.13,5.78.13,29.58,0,59.16,0,88.74,0,2.13,0,4.27-.23,6.4-.35-.34.49-.59,1.28-1.02,1.4-1.01.27-2.1.28-3.16.28-30.76,0-61.51,0-92.27,0-1.06,0-2.15,0-3.17-.23-.5-.12-.87-.8-1.29-1.23h-.01Z"/>
  <path class="cls-1" d="M53.29,143.92c2.14.07,4.28.19,6.42.19,29.37,0,58.73,0,88.1,0,2.14,0,4.28-.16,6.42-.24-.38.46-.7,1.23-1.16,1.32-1.24.24-2.53.25-3.81.25-30.31,0-60.63,0-90.94,0-1.27,0-2.57,0-3.81-.24-.47-.09-.82-.83-1.22-1.28Z"/>
  <path class="cls-1" d="M153.99,43.92c-1.92-.05-3.84-.15-5.76-.15-29.67-.01-59.34,0-89.01,0-1.92,0-3.84.08-5.76.12.17-.36.31-1.01.51-1.04,1.69-.19,3.39-.36,5.09-.36,29.79-.02,59.57-.02,89.36,0,1.5,0,3-.02,4.48.17.41.05.72.83,1.08,1.27h0Z"/>
  <path class="cls-1" d="M481.54,604.95c-.5.37-.96.97-1.5,1.05-1.25.19-2.54.18-3.82.18h-90.92c-1.27,0-2.57,0-3.81-.25-.46-.09-.78-.86-1.17-1.33.3-.09.6-.14.91-.17.41.07.81.15,1.22.22,8.1.1,16.2.27,24.29.27,23.46.02,46.92-.03,70.37-.06,1.06,0,2.12-.12,3.19-.19.39.21.8.3,1.23.28h.01Z"/>
  <path class="cls-1" d="M808.39,43.92c-1.71-.05-3.42-.15-5.13-.16-29.54,0-59.09-.01-88.63,0-1.71,0-3.42.12-5.13.18-.39-.11-.78-.16-1.18-.17.22-.34.4-.96.66-.99,1.48-.18,2.98-.31,4.47-.31,30.23-.02,60.45-.02,90.68,0,1.49,0,2.98.22,4.46.34-.06.37-.13.73-.2,1.1h0Z"/>
  <path class="cls-1" d="M147.02,330.91c-.06.31-.1.63-.14.95-1.91.08-3.83.22-5.74.22-29.01,0-58.03-.01-87.04-.03,0-.34-.09-.95,0-.97.59-.18,1.21-.31,1.83-.31,29.94,0,59.88.02,89.82.04.43,0,.85.06,1.28.1h0Z"/>
  <path class="cls-1" d="M239.88,689.63c-1.7.1-3.4.29-5.1.29-27.96,0-55.91-.02-83.87-.05-1.28,0-2.57.01-3.82-.19-.5-.08-.9-.75-1.35-1.14.41.04.8-.02,1.18-.18,2.35.08,4.7.21,7.06.22,28.51.05,57.02.09,85.53.12.14.3.26.61.37.93h0Z"/>
  <path class="cls-1" d="M716.55,688.32c-.37.46-.67,1.22-1.12,1.33-1.02.25-2.12.22-3.19.22-28.32.03-56.63.05-84.95.05-1.49,0-2.98-.23-4.47-.36.12-.3.26-.6.41-.89,28.55-.03,57.11-.05,85.66-.1,2.55,0,5.11-.16,7.66-.25h0Z"/>
  <path class="cls-1" d="M715.88,331.9c-.05-.3-.11-.6-.18-.9,1.91-.07,3.83-.2,5.74-.21,26.85-.02,53.71-.03,80.56-.02,1.7,0,3.41.04,5.09.24.5.06.92.76,1.37,1.17-2.57-.04-5.14-.12-7.71-.12-25.94,0-51.88.01-77.82,0-2.35,0-4.71-.12-7.06-.18v.02Z"/>
  <path class="cls-1" d="M189.45,586.91h-77.73c-2.35,0-4.71.08-7.06.12-.12-.37-.22-.75-.3-1.13,1.49-.09,2.97-.27,4.46-.27,25.42-.02,50.83-.02,76.25,0,1.28,0,2.56.07,3.82.24.23.03.38.67.56,1.04h0Z"/>
  <path class="cls-1" d="M758.36,586.91c-25.91,0-51.82,0-77.73.01-2.35,0-4.71.08-7.06.12-.11-.37-.21-.75-.3-1.12,1.49-.09,2.97-.27,4.46-.27,25.42-.02,50.83-.02,76.25,0,1.28,0,2.56.07,3.82.24.23.03.38.67.56,1.03h0Z"/>
  <path class="cls-1" d="M380.48,43.93c-11.7-.06-23.4-.14-35.1-.17-14.26-.03-28.51-.02-42.77-.02.44-.38.85-1.04,1.33-1.1,1.47-.18,2.97-.16,4.45-.16,21.49,0,42.99-.01,64.48,0,2.13,0,4.26.08,6.37.27.44.04.83.77,1.24,1.18Z"/>
  <path class="cls-1" d="M558.81,44c-1.92-.08-3.83-.23-5.75-.23-20.92-.02-41.84-.02-62.77,0-2.77,0-5.55.09-8.32.13.22-.33.41-.92.67-.96,1.47-.23,2.95-.43,4.44-.44,23.24-.03,46.48-.02,69.72-.01.84,0,1.71.1,2.52.31.29.08.45.64.67.99-.4.04-.79.11-1.18.22h0Z"/>
  <path class="cls-1" d="M661.78,43.99c-2.35-.08-4.7-.22-7.06-.23-16.5-.02-33,0-49.5-.02-2.35,0-4.71-.14-7.06-.21.55-.73,1.31-1.04,2.2-1.04h60.75c.91,0,1.64.28,1.86,1.28-.41.02-.8.09-1.19.21h0Z"/>
  <path class="cls-1" d="M264.26,43.56c-1.28.06-2.55.18-3.83.18-20.27,0-40.54,0-60.81-.02.22-.34.4-.93.68-.98,1.04-.19,2.1-.27,3.16-.27,18.92-.01,37.85-.02,56.77.01,1.4,0,3.03-.54,4.03,1.07h0Z"/>
  <path class="cls-1" d="M53.43,509.53c5.1.05,10.21.15,15.31.16,12.76.02,25.52.02,38.29,0,2.12,0,4.25-.11,6.37-.17.39.11.78.17,1.18.16.12.34.15.68.1,1.03-2.35.09-4.7.25-7.05.26-13.5.02-26.99,0-40.49.02-4.28,0-8.56.1-12.85.16-.56-.4-1.15-.77-.86-1.62Z"/>
  <path class="cls-1" d="M749.27,509.43c1.28.09,2.56.25,3.84.25,17.37.02,34.73.01,52.1,0,1.07,0,2.14-.11,3.21-.17.05.37.08.74.09,1.11l.03.43c-20.17,0-40.35-.02-60.52-.02,0-.43.02-.85.02-1.28.41-.1.82-.21,1.23-.32h0Z"/>
  <path class="cls-1" d="M54.29,511.15c4.28-.06,8.56-.15,12.85-.16,13.5-.02,26.99,0,40.49-.02,2.35,0,4.7-.17,7.05-.26-.44.44-.82,1.15-1.33,1.25-1.23.25-2.52.29-3.79.29-16.84.02-33.67.02-50.51,0-1.65,0-3.46.45-4.77-1.1h0Z"/>
  <path class="cls-1" d="M748.02,511.03c20.17,0,40.35.02,60.52.02-.72.39-1.41,1.02-2.17,1.12-1.47.19-2.97.1-4.46.1-16.39,0-32.79.01-49.18-.01-1.65,0-3.46.44-4.7-1.23h-.01Z"/>
  <path class="cls-1" d="M267.89,504.52c.87-.1,1.74-.19,2.6-.29,2.75.07,5.5.2,8.25.21,10.59.02,21.19.02,31.78,0,2.11,0,4.23-.14,6.34-.21.4-.04.81-.07,1.21-.11.36.1.73.17,1.1.19-.43.43-.79,1.07-1.3,1.23-.78.25-1.67.22-2.52.22-14.48.01-28.97.02-43.45,0-1.44,0-3.04.35-4.01-1.25h0Z"/>
  <path class="cls-1" d="M545.93,504.27c9.95.06,19.9.16,29.86.17,5.5,0,11.01-.11,16.51-.17.82.07,1.65.13,2.47.2-.47.39-.88.97-1.42,1.12-.8.22-1.68.19-2.53.19-14.47,0-28.94.02-43.41,0-1.43,0-3.04.4-4-1.22.84-.09,1.68-.18,2.52-.27v-.02Z"/>
  <path class="cls-1" d="M762.49,259.68c-.09-.32-.21-.62-.35-.92,14.62-.04,29.24-.09,43.86-.12,1.09,0,2.1.21,2.45,1.48-11.28-.06-22.56-.11-33.84-.19-4.04-.03-8.08-.16-12.12-.25Z"/>
  <path class="cls-1" d="M672.59,620.14c2.34.09,4.67.25,7.01.26,10.65.03,21.29,0,31.94.03,1.47,0,2.95.18,4.41.38.2.03.32.68.47,1.04-12.34-.05-24.68-.08-37.02-.14-1.91,0-3.82-.04-5.72-.24-.41-.04-.73-.86-1.09-1.32h0Z"/>
  <path class="cls-1" d="M99.46,258.89c-.1.32-.2.63-.3.95-14.39.03-28.77.06-43.16.08-.63,0-1.25-.16-1.88-.24.86-1.27,2.21-1.05,3.44-1.05,8.26-.02,16.51-.04,24.77,0,5.71.03,11.42.17,17.13.26h0Z"/>
  <path class="cls-1" d="M145.78,621.71c.2-.35.37-.99.6-1.01,1.7-.17,3.4-.28,5.11-.28,12.62-.02,25.25-.02,37.87-.02-.45.39-.87,1.07-1.36,1.12-1.69.18-3.41.18-5.12.18-9.85.01-19.69,0-29.54.02-2.14,0-4.27.13-6.41.2-.38-.12-.76-.19-1.15-.21h0Z"/>
  <path class="cls-1" d="M279.57,545.71c-8.56.05-17.11.11-25.67.16-.08-.38-.14-.75-.17-1.14,8.2-.07,16.41-.15,24.61-.15.41,0,.82.73,1.23,1.13h0Z"/>
  <path class="cls-1" d="M444.09,545.78c-8.54-.02-17.08-.04-25.62-.06.2-.35.37-.73.62-1.03.1-.13.39-.14.6-.14,7.76,0,15.52-.01,23.27.06.38,0,.75.77,1.13,1.17h0Z"/>
  <path class="cls-1" d="M418.47,568.93c8.55-.03,17.1-.06,25.65-.09-.18.36-.27.83-.55,1.05-.3.23-.79.3-1.2.3-7.35.02-14.69.02-22.04.02-.91,0-1.6-.33-1.86-1.28h0Z"/>
  <path class="cls-1" d="M608.97,545.76c-8.54.07-17.08.14-25.63.22-.06-.39-.15-.77-.28-1.14,1.25-.13,2.51-.37,3.76-.38,6.78-.03,13.56,0,20.34,0,.91,0,1.62.28,1.8,1.29h.01Z"/>
  <path class="cls-1" d="M436.54,44.08h-6.45c-1.28,0-2.57-.01-3.85-.02-.86,0-1.72-.01-2.58-.02-1.28-.12-2.57-.24-3.85-.37.48-.34.96-.98,1.45-.98,6.74-.05,13.47-.03,20.21.05.43,0,.86.72,1.28,1.11-.39.03-.76.11-1.12.24h-5.09Z"/>
  <path class="cls-1" d="M379.95,544.44c-6.87.05-13.75.09-20.62.14-.38-.08-.77-.13-1.16-.14.17-.36.3-.74.53-1.06.09-.12.39-.13.6-.13,6.5,0,13,0,19.5-.01.84,0,.92.66,1.15,1.2Z"/>
  <path class="cls-1" d="M440.47,393.81h-20.76c.32-.91,1.03-1.13,1.91-1.14.61,0,1.22-.1,1.83-.16,4.41-.03,8.82-.05,13.23-.08.62.07,1.23.16,1.85.2.87.05,1.61.27,1.94,1.18Z"/>
  <path class="cls-1" d="M503.26,544.56h-20.19c-.12-.37-.22-.75-.3-1.13h20.78c-.09.38-.19.75-.3,1.13h0Z"/>
  <path class="cls-1" d="M540.81,544.7l-.61-.14-.62.09c.44-.43.87-1.22,1.32-1.23,5.08-.1,10.17-.1,15.25-.02.46,0,.9.77,1.35,1.19-5.56.04-11.13.07-16.69.11Z"/>
  <path class="cls-1" d="M178.88,455.62c1.06,0,2.13-.15,3.17,0,3.61.5,7.2.51,10.8,0,1.04-.15,2.11-.02,3.17-.01-.29.37-.58.74-.87,1.11-1.07.16-2.14.32-3.22.48h-8.92c-1.38-.52-2.75-1.05-4.13-1.57h0Z"/>
  <path class="cls-1" d="M682.38,392.53h-15.52c.39-.91,1.17-1.06,2.05-1.13,1.05-.08,2.1-.25,3.15-.37l6.46.07c1.28.5,3.01-.22,3.86,1.44h0Z"/>
  <path class="cls-1" d="M194.57,392.5c-5.18.02-10.36.04-15.54.06.4-.91,1.19-1.04,2.06-1.11.63-.05,1.24-.22,1.86-.34,2.58,0,5.16-.02,7.74-.03,1.27.53,3.05-.3,3.88,1.43h0Z"/>
  <path class="cls-1" d="M666.64,455.66c5.36.02,10.73.05,16.09.07-.26.32-.47.67-.65,1.05-1.21.16-2.41.32-3.62.48-2.54-.01-5.08-.03-7.63-.04-1.4-.52-2.8-1.04-4.2-1.56h.01Z"/>
  <path class="cls-1" d="M623.23,688.67c-.15.29-.29.58-.41.89-4.02.05-8.03.14-12.05.1-.35,0-.7-.84-1.05-1.28,4.5.1,9,.2,13.51.3h0Z"/>
  <path class="cls-1" d="M239.88,689.63c-.1-.32-.22-.63-.37-.93,4.32-.05,8.64-.1,12.96-.15-.41.39-.81,1.12-1.23,1.13-3.79.06-7.58-.01-11.37-.05h.01Z"/>
  <path class="cls-1" d="M436.68,392.44c-4.41.02-8.82.05-13.23.08.74-.35,1.47-.97,2.23-1.01,2.94-.16,5.89-.21,8.82-.13.74.02,1.45.69,2.18,1.06h0Z"/>
  <path class="cls-1" d="M423.56,488.84c.49-.35.98-.98,1.48-.99,3.36-.06,6.72-.04,10.08.07.51.02,1.01.62,1.51.95-.47.15-.94.3-1.41.44-2.99-.01-5.98-.03-8.97-.04-.9-.15-1.79-.29-2.69-.44h0Z"/>
  <path class="cls-1" d="M647.61,404.16c-.19,2.77-1.75,4.94-3.21,7.13-.27.39-1.1.41-1.67.6.89-1.93,1.67-3.92,2.71-5.77.45-.8,1.43-1.31,2.17-1.95h0Z"/>
  <path class="cls-1" d="M62,222.87c-.02.31-.06.61-.11.92-3.37-.02-6.75-.04-10.12-.07-.08-.42.01-.8.28-1.13,3.32.09,6.64.19,9.96.28h0Z"/>
  <path class="cls-1" d="M221.69,545.72c-1.32.05-2.64.1-3.97.14-2.16-.09-4.32-.17-6.49-.26.05-.31.09-.62.12-.93,3.07-.04,6.14-.13,9.21-.08.38,0,.75.73,1.12,1.13h.01Z"/>
  <path class="cls-1" d="M183.01,457.19h8.92c-2.97,1.55-5.95,1.55-8.92,0Z"/>
  <path class="cls-1" d="M426.26,489.28c2.99.01,5.98.03,8.97.04-3,1.69-5.99,1.74-8.97-.04Z"/>
  <path class="cls-1" d="M161.1,403.2c.16,2.21-.33,4.04-2.76,4.74.25-1.97.35-4.03,2.76-4.74Z"/>
  <path class="cls-1" d="M670.84,457.22c2.54.01,5.08.03,7.63.04-3.06,1.35-4.66,1.34-7.63-.04Z"/>
  <path class="cls-1" d="M190.7,391.08c-2.58,0-5.16.02-7.74.03,2.57-1.68,5.16-1.7,7.74-.03Z"/>
  <path class="cls-1" d="M678.52,391.09l-6.46-.07c2.17-1.54,4.32-1.54,6.46.07Z"/>
  <path class="cls-1" d="M167.49,397.73c-.63,1.76-1.88,2.61-3.75,2.53.59-1.82,1.99-2.44,3.75-2.53Z"/>
  <path class="cls-1" d="M655.31,397.62c-.62,1.93-1.99,2.71-3.95,2.62.74-1.74,2.1-2.55,3.95-2.62Z"/>
  <path class="cls-1" d="M219.38,435.01c-.07-.94-.25-1.9-.15-2.82.04-.39.68-.72,1.04-1.08-.02,1.36.42,2.83-.89,3.9Z"/>
  <path class="cls-1" d="M476.73,458.18c-.05-.94-.21-1.9-.1-2.82.05-.38.7-.69,1.07-1.03,0,1.36.47,2.85-.97,3.84h0Z"/>
  <path class="cls-1" d="M384.22,451.84c1.2,1.11.78,2.54.78,3.89-.35-.37-.97-.71-1.01-1.11-.08-.91.13-1.85.23-2.78Z"/>
  <path class="cls-1" d="M684.85,455.55c.44-.37.82-.91,1.33-1.08.79-.27,1.67-.29,2.5-.42-.67,2.05-2.36,1.5-3.83,1.5Z"/>
  <path class="cls-1" d="M440.26,489.05c.48-1.49,1.58-1.28,2.71-.99-.66.98-1.66,1.05-2.71.99Z"/>
  <path class="cls-1" d="M706.68,434.96c.14-.83.28-1.66.42-2.48.71.99.57,1.81-.42,2.48Z"/>
  <path class="cls-1" d="M207.42,450.43c.18-1.5,1.41-1.33,2.42-1.52-.25,1.4-1.29,1.52-2.42,1.52Z"/>
  <path class="cls-1" d="M594.76,504.46c-.82-.07-1.65-.13-2.47-.2.58-.89,1.47-1.04,2.43-1.02.01.41.03.81.04,1.22h0Z"/>
  <path class="cls-1" d="M809.88,188.92c-.88-.04-1.75-.07-2.63-.11.92-1.15,1.8-1.09,2.63.11Z"/>
  <path class="cls-1" d="M545.93,504.27c-.84.09-1.68.18-2.52.27.04-.43.07-.86.11-1.3.96-.02,1.84.13,2.41,1.02h0Z"/>
  <path class="cls-1" d="M441.63,44.08c.36-.13.74-.21,1.12-.24.03.83.05,1.67.08,2.5h-1.16c-.01-.75-.02-1.5-.04-2.26Z"/>
  <path class="cls-1" d="M203.47,452.95c.34-1.52,1.54-1.21,2.59-1.23-.48,1.22-1.5,1.3-2.59,1.23Z"/>
  <path class="cls-1" d="M686.3,393.82c-1.02.06-1.98-.04-2.61-1.01,1.1-.26,2.1-.27,2.61,1.01Z"/>
  <path class="cls-1" d="M445.64,395.1c-1.03.06-2.01-.03-2.64-1,1.11-.28,2.15-.35,2.64,1Z"/>
  <path class="cls-1" d="M661.75,394.17c-.62.94-1.58.97-2.56.91.36-1.67,1.53-1.09,2.56-.91Z"/>
  <path class="cls-1" d="M171.32,395.24c-.52,1.14-1.51,1.18-2.55,1.12.34-1.53,1.64-.89,2.55-1.12Z"/>
  <path class="cls-1" d="M682.09,456.78c.18-.37.39-.72.65-1.05.72-.07,1.44-.15,2.16-.22-.52,1.35-1.61,1.41-2.81,1.27h0Z"/>
  <path class="cls-1" d="M659.16,395.12c-.51,1.22-1.57,1.28-2.67,1.25.36-1.55,1.7-1.01,2.67-1.25Z"/>
  <path class="cls-1" d="M406.86,398.7c-.29,1.44-1.4,1.53-2.56,1.56.18-1.62,1.61-1.2,2.56-1.56Z"/>
  <path class="cls-1" d="M395.5,406.78c-.27.99.16,2.33-1.38,2.67-.03-1.14.05-2.22,1.38-2.67Z"/>
  <path class="cls-1" d="M200.86,454.21c.34-1.53,1.67-1.02,2.63-1.27-.43,1.34-1.5,1.37-2.63,1.27Z"/>
  <path class="cls-1" d="M477.72,454.32c.11-.85.22-1.7.32-2.54.73.97.62,1.81-.32,2.54Z"/>
  <path class="cls-1" d="M157.15,410.39c.06,1.16-.02,2.26-1.37,2.7.31-.98-.03-2.29,1.37-2.7Z"/>
  <path class="cls-1" d="M155.85,413.03c.08,1,.08,1.97-.83,2.66-.29-1.06-.8-2.19.83-2.66Z"/>
  <path class="cls-1" d="M266.22,45.19c-1.07.03-1.71-.47-1.92-1.53,1.06-.01,2.12-.04,1.92,1.53Z"/>
  <path class="cls-1" d="M385.01,427.22c.08,1.02.07,2.01-.94,2.64-.27-1.09-.35-2.11.94-2.64Z"/>
  <path class="cls-1" d="M206.12,451.69c.42-.39.84-.79,1.26-1.18-.42.39-.84.79-1.26,1.18Z"/>
  <path class="cls-1" d="M215.17,442.73c.4-.45.81-.9,1.21-1.35-.4.45-.81.9-1.21,1.35Z"/>
  <path class="cls-1" d="M705.75,436.32c-.25-.89.2-1.28,1-1.42-.33.47-.67.95-1,1.42Z"/>
  <path class="cls-1" d="M214.05,444.06c-.18-.87.25-1.25,1.07-1.29-.36.43-.72.86-1.07,1.29Z"/>
  <path class="cls-1" d="M383.67,430.97c-.26.49-.51.98-.77,1.47-.61-.94.02-1.24.77-1.47Z"/>
  <path class="cls-1" d="M153.92,427.23c.74.37.86.94.52,1.65-.66-.4-.9-.92-.52-1.65Z"/>
  <path class="cls-1" d="M707.61,416.97c-.26-.42-.51-.84-.77-1.26.51.26,1.12.46.77,1.26Z"/>
  <path class="cls-1" d="M642.45,414.36c-.34.45-.68.9-1.03,1.36-.25-.9.31-1.19,1.03-1.36Z"/>
  <path class="cls-1" d="M808.39,43.92c.07-.36.14-.73.2-1.1.29.25.6.49.84.78.05.06-.19.35-.29.54l-.43.08-.32-.31h0Z"/>
  <path class="cls-1" d="M222.36,551.03c-.74-.48-.84-1.08-.34-1.79.69.49.82,1.08.34,1.79Z"/>
  <path class="cls-1" d="M358.16,544.44c.39,0,.78.05,1.16.14-.39.38-.77.77-1.16,1.15v-1.29h0Z"/>
  <path class="cls-1" d="M253.73,544.74c.03.38.09.76.17,1.14l-.33.32-.45-.08c-.46-.75-.24-1.2.61-1.37h0Z"/>
  <path class="cls-1" d="M700.06,402.85c-.31-.38-.62-.77-.93-1.15.69.08,1.16.33.93,1.15Z"/>
  <path class="cls-1" d="M698.99,401.55l-1.14-1.13,1.14,1.13Z"/>
  <path class="cls-1" d="M404.33,400.21c-.18.82-.72,1.24-1.54,1.31.51-.44,1.03-.87,1.54-1.31Z"/>
  <path class="cls-1" d="M697.68,400.27c-.37-.3-.74-.6-1.11-.9.79-.22,1.03.24,1.11.9Z"/>
  <path class="cls-1" d="M253.11,577.75c.5.58.46,1.11-.13,1.6.04-.53.09-1.07.13-1.6Z"/>
  <path class="cls-1" d="M104.36,585.91c.08.38.18.75.3,1.13l-.46.24-.51-.14c-.41-.76-.26-1.21.67-1.23Z"/>
  <path class="cls-1" d="M199.7,454.55c.35-.23.74-.35,1.16-.36-.13.97-.47,1.25-1.16.36Z"/>
  <path class="cls-1" d="M673.27,585.91c.08.38.18.75.3,1.12l-.47.24-.51-.13c-.4-.76-.25-1.21.68-1.23Z"/>
  <path class="cls-1" d="M168.76,396.37c-.41.43-.82.87-1.23,1.3,0-.81.45-1.22,1.23-1.3Z"/>
  <path class="cls-1" d="M195.16,456.72c.29-.37.58-.74.87-1.11.33-.05.67-.1,1-.15-.3.9-.96,1.26-1.87,1.26Z"/>
  <path class="cls-1" d="M382.45,604.65c-.41-.07-.81-.15-1.22-.22.52-.55.91-.38,1.22.22Z"/>
  <path class="cls-1" d="M481.54,604.95c-.44.02-.85-.07-1.23-.28l1.32-1.02c-.03.43-.06.87-.09,1.3h0Z"/>
  <path class="cls-1" d="M503.26,544.56c.11-.37.21-.75.3-1.13.92.02,1.08.47.67,1.23l-.5.14-.47-.24Z"/>
  <path class="cls-1" d="M395.39,473.73c.37.4.74.8,1.1,1.19-.37-.4-.74-.8-1.1-1.19Z"/>
  <path class="cls-1" d="M482.78,543.44c.08.38.18.75.3,1.13l-.46.24-.51-.14c-.41-.76-.26-1.21.67-1.23h0Z"/>
  <path class="cls-1" d="M145.78,621.71c.39.02.78.09,1.15.21-.38.34-.77.69-1.15,1.03v-1.24h0Z"/>
  <path class="cls-1" d="M359.32,633.15c-.39.06-.79.09-1.18.07,0-.42.02-.84.03-1.25.39.4.77.79,1.16,1.19h-.01Z"/>
  <path class="cls-1" d="M172.67,394.08c-.41.34-.83.67-1.24,1.01.04-.79.35-1.26,1.24-1.01Z"/>
  <path class="cls-1" d="M396.65,475.09c.4.36.79.73,1.19,1.09-.4-.36-.79-.73-1.19-1.09Z"/>
  <path class="cls-1" d="M503.44,634.21c-.07-.38-.13-.75-.19-1.13.28-.29.58-.32.9-.08.4.78.11,1.15-.71,1.21Z"/>
  <path class="cls-1" d="M319.52,382.24c.41.04.81.12,1.21.23-.39.36-.78.72-1.17,1.09-.01-.44-.02-.88-.04-1.32h0Z"/>
  <path class="cls-1" d="M114.95,382.28c.39.05.77.13,1.15.24-.37.35-.74.7-1.11,1.05,0-.43-.03-.86-.04-1.28h0Z"/>
  <path class="cls-1" d="M558.81,44c.39-.11.78-.18,1.18-.22,0,.42.02.84.03,1.27,0,0-1.21-1.05-1.21-1.05Z"/>
  <path class="cls-1" d="M597.4,44.13c-.3.3-.59.6-.89.9-.29-.88.14-1.05.89-.9Z"/>
  <path class="cls-1" d="M146.93,688.35c-.38.16-.77.22-1.18.18.02-.41.04-.81.06-1.22.37.35.74.7,1.11,1.05h0Z"/>
  <path class="cls-1" d="M661.78,43.99c.39-.12.78-.19,1.19-.21,0,.42-.02.84-.02,1.27-.39-.35-.78-.7-1.17-1.06Z"/>
  <path class="cls-1" d="M708.32,43.77c.4,0,.79.06,1.18.17-.38.38-.76.76-1.14,1.14-.01-.43-.02-.87-.03-1.3h0Z"/>
  <path class="cls-1" d="M54.17,188.67l-.58.15h-.6c.32-.67.7-.86,1.18-.15Z"/>
  <path class="cls-1" d="M198.39,188.7c-.42.09-.83.18-1.25.27.31-.6.68-.88,1.25-.27Z"/>
  <path class="cls-1" d="M665.64,188.97c-.42-.05-.85-.09-1.27-.14.5-.67.91-.51,1.27.14Z"/>
  <path class="cls-1" d="M808.51,510.62c0-.37-.04-.74-.09-1.11.17-.32.4-.38.71-.2.4.8.16,1.32-.62,1.32h0Z"/>
  <path class="cls-1" d="M52.97,189.35c-.31.39-.62.78-.93,1.18-.35-.91.1-1.2.93-1.18Z"/>
  <path class="cls-1" d="M557.64,760.59c.06-.43.12-.87.17-1.3.35.39.69.78,1.04,1.17l-.59.17-.62-.04h0Z"/>
  <path class="cls-1" d="M774.76,759.29c.06.43.12.87.18,1.3l-.62.05-.6-.17c.35-.39.7-.78,1.04-1.18Z"/>
  <path class="cls-1" d="M597.45,222.46c-.38.08-.76.14-1.15.18,0-.42.02-.84.03-1.26.37.36.74.72,1.12,1.08h0Z"/>
  <path class="cls-1" d="M809.61,190.51c.12-.4.19-.8.19-1.22.84.16,1.23.56.77,1.42l-.52.09-.44-.29Z"/>
  <path class="cls-1" d="M114.58,509.68c-.4,0-.8-.05-1.18-.16l1.18-1.14v1.3Z"/>
  <path class="cls-1" d="M583.07,544.83c.12.37.22.75.28,1.14l-.39.21-.39-.21c-.42-.64-.34-1.06.51-1.14h-.01Z"/>
</svg>